<svg width="129" height="43" viewBox="0 0 129 43" fill="none" xmlns="http://www.w3.org/2000/svg">
<path fill-rule="evenodd" clip-rule="evenodd" d="M44.6722 33.1386C50.5297 33.1386 55.3027 28.6427 55.3027 22.5414C55.3027 16.3972 50.5297 11.9443 44.6722 11.9443C38.8146 11.9443 34.0416 16.3972 34.0416 22.5414C34.0416 28.6427 38.8146 33.1386 44.6722 33.1386ZM44.6722 16.1201C47.8828 16.1201 50.6492 18.7288 50.6492 22.5414C50.6492 26.3111 47.8828 28.9628 44.6722 28.9628C41.4615 28.9628 38.6952 26.3159 38.6952 22.5414C38.6952 18.7288 41.4615 16.1201 44.6722 16.1201Z" fill="#979797"/>
<path fill-rule="evenodd" clip-rule="evenodd" d="M67.6055 33.1386C73.4631 33.1386 78.2361 28.6427 78.2361 22.5414C78.2361 16.3972 73.4631 11.9443 67.6055 11.9443C61.748 11.9443 56.975 16.402 56.975 22.5414C56.975 28.6427 61.748 33.1386 67.6055 33.1386ZM67.6055 16.1201C70.8162 16.1201 73.5825 18.7288 73.5825 22.5414C73.5825 26.3111 70.8162 28.9628 67.6055 28.9628C64.3949 28.9628 61.6285 26.3159 61.6285 22.5414C61.6285 18.7288 64.3949 16.1201 67.6055 16.1201Z" fill="#979797"/>
<path fill-rule="evenodd" clip-rule="evenodd" d="M100.214 31.6097V12.5893H95.7945V14.3141H95.632C94.5857 13.0671 92.579 11.9443 90.0516 11.9443C84.753 11.9443 79.8988 16.5979 79.8988 22.5797C79.8988 28.5184 84.753 33.1338 90.0516 33.1338C92.5838 33.1338 94.5905 32.011 95.632 30.7258H95.7945V32.2499C95.7945 36.3062 93.6301 38.461 90.1376 38.461C87.29 38.461 85.5222 36.4257 84.8008 34.7009L80.7492 36.3874C81.915 39.1968 85.0062 42.632 90.1424 42.632C95.5986 42.632 100.214 39.4357 100.214 31.6097ZM90.4672 16.1201C93.6349 16.1201 96.1241 18.8482 96.1241 22.5797C96.1241 26.2729 93.6349 28.9628 90.4672 28.9628C87.2566 28.9628 84.5667 26.2729 84.5667 22.5797C84.5667 18.8482 87.2566 16.1201 90.4672 16.1201Z" fill="#979797"/>
<path fill-rule="evenodd" clip-rule="evenodd" d="M107.5 1.43335V32.4889H102.961V1.43335H107.5Z" fill="#979797"/>
<path fill-rule="evenodd" clip-rule="evenodd" d="M128.799 28.4374L125.187 26.0294C123.983 27.7971 122.34 28.9629 119.97 28.9629C117.605 28.9629 115.918 27.8784 114.834 25.7523L129 19.8851L128.517 18.6811C127.638 16.3161 124.948 11.9397 119.449 11.9397C113.988 11.9397 109.454 16.2349 109.454 22.5368C109.454 28.4804 113.95 33.1339 119.97 33.1339C124.824 33.1339 127.634 30.1621 128.799 28.4374ZM123.539 18.2846L114.069 22.2167C113.95 18.1269 117.242 16.039 119.607 16.039C121.451 16.039 123.018 16.9611 123.539 18.2846Z" fill="#979797"/>
<path fill-rule="evenodd" clip-rule="evenodd" d="M16.8608 19.7848V15.2889H32.0111C32.1592 16.0725 32.2357 16.9994 32.2357 18.0027C32.2357 21.3758 31.3136 25.5468 28.3418 28.5186C25.4512 31.5286 21.758 33.1339 16.8656 33.1339C7.79733 33.1339 0.171997 25.7475 0.171997 16.6793C0.171997 7.61105 7.79733 0.224609 16.8656 0.224609C21.8822 0.224609 25.456 2.19305 28.1411 4.75872L24.9687 7.93116C23.0432 6.12516 20.4346 4.7205 16.8608 4.7205C10.2388 4.7205 5.05966 10.0573 5.05966 16.6793C5.05966 23.3013 10.2388 28.6381 16.8608 28.6381C21.156 28.6381 23.6022 26.9133 25.1693 25.3462C26.4402 24.0753 27.2763 22.2597 27.606 19.7801L16.8608 19.7848Z" fill="#979797"/>
</svg>
